<svg xmlns="http://www.w3.org/2000/svg" width="19.947" height="28.48" viewBox="0 0 19.947 28.48"><defs><style>.a{fill:#fed88f;}</style></defs><g transform="translate(-8.203)"><path class="a" d="M24.2,12a3.641,3.641,0,1,0,3.641,3.641A3.645,3.645,0,0,0,24.2,12Zm0,6.241a2.6,2.6,0,1,1,2.6-2.6A2.6,2.6,0,0,1,24.2,18.241Z" transform="translate(-5.929 -5.759)"/><path class="a" d="M25.23,2.921a9.974,9.974,0,0,0-14.105,0C7.638,6.407,7.2,12.966,10.186,16.94l7.991,11.54,7.979-11.524C29.149,12.966,28.716,6.407,25.23,2.921Zm.083,13.426-7.135,10.3L11.03,16.332a10.264,10.264,0,0,1,.83-12.675,8.933,8.933,0,0,1,12.634,0A10.269,10.269,0,0,1,25.312,16.348Z" transform="translate(0 0)"/></g></svg>