<svg xmlns="http://www.w3.org/2000/svg" width="24.286" height="24.287" viewBox="0 0 24.286 24.287"><defs><style>.a{fill:none;stroke:#fed88f;}</style></defs><g transform="translate(0.49 0.5)"><path class="a" d="M23.246,18.043q-.1-.3-1.257-.876-.314-.182-.893-.5t-1.05-.579q-.472-.265-.885-.512-.066-.05-.413-.29a4.649,4.649,0,0,0-.587-.356,1.083,1.083,0,0,0-.471-.116,1.373,1.373,0,0,0-.827.471,8.053,8.053,0,0,0-.909,1.026,9.971,9.971,0,0,1-.876,1.025,1.26,1.26,0,0,1-.761.471,1.125,1.125,0,0,1-.372-.082c-.149-.055-.262-.1-.339-.14s-.209-.116-.4-.232-.292-.179-.314-.19a17.38,17.38,0,0,1-3.887-2.878A17.371,17.371,0,0,1,6.129,10.4q-.017-.033-.19-.314t-.232-.4a3.584,3.584,0,0,1-.14-.339,1.119,1.119,0,0,1-.083-.372,1.26,1.26,0,0,1,.471-.761,9.961,9.961,0,0,1,1.025-.876,8.049,8.049,0,0,0,1.025-.909,1.373,1.373,0,0,0,.471-.827,1.08,1.08,0,0,0-.116-.471,4.6,4.6,0,0,0-.356-.587q-.24-.347-.29-.414Q7.469,3.721,7.2,3.25T6.625,2.2q-.314-.579-.5-.893Q5.551.149,5.253.05A.926.926,0,0,0,4.906,0,5.449,5.449,0,0,0,3.74.165,6.549,6.549,0,0,0,2.607.513,4.434,4.434,0,0,0,.853,2.53,6.412,6.412,0,0,0,.01,5.606a6.387,6.387,0,0,0,.058.868,7.136,7.136,0,0,0,.207.951q.149.529.24.786t.339.918q.248.662.3.81a14.981,14.981,0,0,0,1.373,2.894,24.523,24.523,0,0,0,3.564,4.375,24.534,24.534,0,0,0,4.375,3.564,15,15,0,0,0,2.894,1.373q.149.049.81.3t.918.339q.256.091.785.24a7.2,7.2,0,0,0,.951.207,6.135,6.135,0,0,0,3.945-.786,4.431,4.431,0,0,0,2.017-1.753,6.513,6.513,0,0,0,.347-1.133,5.437,5.437,0,0,0,.166-1.166A.922.922,0,0,0,23.246,18.043Z" transform="translate(0 0)"/></g></svg>