<svg xmlns="http://www.w3.org/2000/svg" width="35.218" height="22.299" viewBox="0 0 35.218 22.299"><g transform="translate(0 -88.067)"><g transform="translate(27.003 89.828)"><g transform="translate(0 0)"><rect width="1.174" height="1.174" fill="#fff"/></g></g><g transform="translate(29.35 91.001)"><g transform="translate(0 0)"><rect width="1.174" height="1.174" fill="#fff"/></g></g><g transform="translate(24.656 96.283)"><g transform="translate(0 0)"><rect width="1.174" height="1.174" fill="#fff"/></g></g><g transform="translate(28.763 97.456)"><g transform="translate(0 0)"><rect width="1.174" height="1.174" fill="#fff"/></g></g><g transform="translate(26.416 100.39)"><g transform="translate(0 0)"><rect width="1.174" height="1.174" fill="#fff"/></g></g><g transform="translate(27.59 102.737)"><g transform="translate(0 0)"><rect width="1.174" height="1.174" fill="#fff"/></g></g><g transform="translate(0 88.067)"><g transform="translate(0 0)"><path d="M34.631,105.671H32.658a2.054,2.054,0,0,0,.213-.9V94.908a3.542,3.542,0,0,0,2.34-3.54,3.591,3.591,0,0,0-3.639-3.3h-21a3.511,3.511,0,0,0-.587.052c-.064.011-.125.031-.188.045a3.713,3.713,0,0,0-.369.1c-.072.025-.139.059-.209.086-.106.045-.211.09-.311.144-.07.038-.137.08-.2.123-.093.059-.183.117-.27.185-.065.05-.126.1-.188.157-.08.071-.157.145-.231.223a2.473,2.473,0,0,0-.164.185c-.068.083-.13.17-.191.259-.046.069-.093.136-.134.208-.055.1-.1.2-.148.3-.034.075-.07.147-.1.224-.008.021-.019.039-.026.059h-3.6a3.689,3.689,0,0,0-2.863,1.3,3.41,3.41,0,0,0-.716,2.859,3.541,3.541,0,0,0,2.993,2.849l2.556,8.094c.017.055.042.1.063.155H.6a.587.587,0,0,0-.587.587v3.521a.587.587,0,0,0,.587.587H34.631a.587.587,0,0,0,.587-.587v-3.521A.587.587,0,0,0,34.631,105.671Zm-9-15.245a3.514,3.514,0,0,0-.7-1.185h6.647a2.418,2.418,0,0,1,2.467,2.2,2.358,2.358,0,0,1-1.873,2.448.6.6,0,0,0-.117.048H28.177a.587.587,0,1,0,0,1.174H31.7v9.664a.9.9,0,0,1-.9.9H23.482V94.909A3.514,3.514,0,0,0,25.63,90.426ZM10.573,89.241H22.309a2.347,2.347,0,0,1,.469,4.647.587.587,0,0,0-.469.575v11.208H19.8l-2.827-8.955a3.521,3.521,0,0,0-2.159-6.3H8.545A2.353,2.353,0,0,1,10.573,89.241ZM4.06,96.69a.587.587,0,0,0-.552-.411,2.363,2.363,0,0,1-2.283-1.924,2.26,2.26,0,0,1,.469-1.893,2.519,2.519,0,0,1,1.955-.874H14.815a2.347,2.347,0,0,1,1.174,4.38.587.587,0,0,0-.265.684l2.85,9.019H7.429a.727.727,0,0,1-.7-.509Zm29.985,12.5H1.184v-2.347h32.86Z" transform="translate(0 -88.067)" fill="#fff"/></g></g></g></svg>