<svg xmlns="http://www.w3.org/2000/svg" width="43.271" height="20.764" viewBox="0 0 43.271 20.764"><g transform="translate(0 -133.151)"><g transform="translate(0 133.151)"><path d="M42.631,140.415H39.6v-3.19a1.75,1.75,0,0,0-1.748-1.748H35.8a1.739,1.739,0,0,0-.469.066V134.9a1.75,1.75,0,0,0-1.748-1.748H30.186a1.75,1.75,0,0,0-1.748,1.748v5.516H14.832V134.9a1.75,1.75,0,0,0-1.748-1.748H9.69A1.75,1.75,0,0,0,7.942,134.9v.643a1.74,1.74,0,0,0-.469-.066H5.419a1.75,1.75,0,0,0-1.748,1.748v3.19H.64a.639.639,0,0,0-.64.639v4.958a.639.639,0,0,0,.64.64H3.671v3.19a1.75,1.75,0,0,0,1.748,1.748H7.473a1.743,1.743,0,0,0,.469-.066v.643a1.75,1.75,0,0,0,1.748,1.748h3.394a1.75,1.75,0,0,0,1.748-1.748v-5.516H28.438v5.516a1.75,1.75,0,0,0,1.748,1.748H33.58a1.75,1.75,0,0,0,1.748-1.748v-.643a1.74,1.74,0,0,0,.469.066h2.054a1.75,1.75,0,0,0,1.748-1.748v-3.19h3.031a.639.639,0,0,0,.639-.64v-4.958A.64.64,0,0,0,42.631,140.415Zm-38.96,4.958H1.279v-3.679H3.671Zm4.271,4.469a.47.47,0,0,1-.469.469H5.419a.47.47,0,0,1-.469-.469V137.225a.47.47,0,0,1,.469-.469H7.473a.469.469,0,0,1,.469.469Zm5.611-8.787v11.113a.47.47,0,0,1-.469.469H9.69a.47.47,0,0,1-.469-.469V134.9a.47.47,0,0,1,.469-.469h3.394a.47.47,0,0,1,.469.469Zm14.886,4.318H14.832v-3.679H28.438Zm5.611-8.148v14.943a.47.47,0,0,1-.469.469H30.186a.47.47,0,0,1-.469-.469V134.9a.47.47,0,0,1,.469-.469H33.58a.47.47,0,0,1,.469.469Zm4.271,3.83v8.787a.47.47,0,0,1-.469.469H35.8a.47.47,0,0,1-.469-.469V137.225a.47.47,0,0,1,.469-.469h2.054a.47.47,0,0,1,.469.469Zm3.67,4.318H39.6v-3.679h2.391Z" transform="translate(0 -133.151)" fill="#a4a4a4"/></g></g></svg>