<svg xmlns="http://www.w3.org/2000/svg" width="30.334" height="46.928" viewBox="0 0 30.334 46.928"><g transform="translate(-90.346 -0.001)"><path d="M298.342,448.689a.689.689,0,0,0,.689.689h1.47a.689.689,0,0,0,0-1.378h-1.47A.689.689,0,0,0,298.342,448.689Z" transform="translate(-188.895 -406.857)" fill="#a4a4a4"/><path d="M119.919,17.954a.863.863,0,0,1,.254-.614,1.729,1.729,0,0,0,0-2.445l-8.763-8.763c.553-.889,1.317-2.828.095-5.712a.689.689,0,0,0-1.195-.132c-1.065,1.49-3.195,2.845-5.661,4.413a38.893,38.893,0,0,0-8.48,6.608,16.487,16.487,0,0,0-4.354,11.42c0,8.306,4.426,11.91,5.782,12.817a2.147,2.147,0,0,0,1.2.362h.322a.781.781,0,1,1,0,1.561H95.443a.689.689,0,0,0-.441.16l-3.879,3.233a2.152,2.152,0,0,0-.777,1.658v3.72a.689.689,0,0,0,.689.689h27.918a.689.689,0,0,0,.689-.689V42.52a2.152,2.152,0,0,0-.777-1.658l-3.879-3.233a.689.689,0,0,0-.441-.16h-3.673a.781.781,0,0,1,0-1.561h.655a2.146,2.146,0,0,0,1.83-1.014l1.44-2.3a5.1,5.1,0,0,0-.611-6.195l-7.846-8.336a20.556,20.556,0,0,0,3.062.217c2.8,0,4.108,1.442,5.261,2.715a9.866,9.866,0,0,0,1.144,1.138,1.428,1.428,0,0,0,1.891-.109l2.476-2.476a.69.69,0,0,0,0-.975.863.863,0,0,1-.255-.614ZM117.05,41.143h-2.505a.689.689,0,0,0,0,1.378h3.673l.046,0v3.033H91.723V42.518l.046,0H107.2a.689.689,0,0,0,0-1.378H92.937l2.755-2.3h18.6Zm-8.19-3.673h-7.732a2.151,2.151,0,0,0,0-1.561h7.732a2.151,2.151,0,0,0,0,1.561Zm10.34-21.1a2.25,2.25,0,0,0-.411,2.615l-2.065,2.065a.049.049,0,0,1-.066,0,8.826,8.826,0,0,1-.975-.98A7.821,7.821,0,0,0,109.4,16.9a14.327,14.327,0,0,1-4.879-.682l-.011,0-.025-.009-.041-.013-.012,0a3.6,3.6,0,0,1-2.354-1.853,3.778,3.778,0,0,1-.119-3.1.689.689,0,0,0-1.279-.512,5.156,5.156,0,0,0,.168,4.234,4.937,4.937,0,0,0,3.037,2.508l9.3,9.878a3.722,3.722,0,0,1,.446,4.52l-1.44,2.3a.776.776,0,0,1-.662.367H98.794a.773.773,0,0,1-.432-.129c-4.8-3.207-5.17-9.744-5.17-11.671,0-9.112,6.762-13.411,12.2-16.866a30.523,30.523,0,0,0,5.221-3.806,3.917,3.917,0,0,1-.592,3.654.689.689,0,0,0,0,.974l9.183,9.183a.351.351,0,0,1,0,.5Z" transform="translate(0 0)" fill="#a4a4a4"/><path d="M263.773,100.613a3.3,3.3,0,0,0-3.555.209,2.644,2.644,0,0,1-1.182.441.689.689,0,0,0,0,1.378,3.793,3.793,0,0,0,1.844-.611c.141-.077.275-.151.406-.216v.138a.689.689,0,0,0,1.378,0v-.323a2.4,2.4,0,0,1,.451.193.689.689,0,1,0,.66-1.209Z" transform="translate(-152.572 -90.978)" fill="#a4a4a4"/></g></svg>