<?xml version="1.0" encoding="utf-8"?>
<!-- Generator: Adobe Illustrator 22.1.0, SVG Export Plug-In . SVG Version: 6.00 Build 0)  -->
<svg version="1.1" id="Layer_1" xmlns="http://www.w3.org/2000/svg" xmlns:xlink="http://www.w3.org/1999/xlink" x="0px" y="0px"
	 viewBox="0 0 50 75.5" style="enable-background:new 0 0 50 75.5;" xml:space="preserve">
<style type="text/css">
	.st0{opacity:0.5;fill:#E6E7E8;enable-background:new    ;}
	.st1{fill:#FCFDFD;}
	.st2{fill:#F7D48E;}
	.st3{opacity:0.5;fill:#F7D48E;}
	.st4{opacity:0.5;}
</style>
<title>pin</title>
<ellipse class="st0" cx="25" cy="63.2" rx="8.3" ry="1"/>
<path class="st1" d="M25,14c-8,0-14.5,6.5-14.5,14.5c0,2.8,0.8,5.5,2.3,7.8l0.1,0.1c0.2,0.3,0.4,0.6,0.6,0.8l0,0.1l6.5,9.2l5.1,7.8
	l5.1-7.8l6.5-9.2c0.2-0.3,0.5-0.6,0.7-1l0-0.1c1.5-2.3,2.3-5,2.3-7.8C39.5,20.5,33,14,25,14z"/>
<path class="st2" d="M25,11.3c-9.7,0-17.5,7.8-17.5,17.5c0,3.3,1,6.6,2.8,9.4l0.1,0.1c0.2,0.4,0.5,0.7,0.7,1l6,8.7l7.9,12.2L32.9,48
	l6-8.6c0.3-0.4,0.6-0.8,0.8-1.2l0-0.1l0,0c1.8-2.8,2.7-6.1,2.7-9.4C42.5,19.1,34.7,11.3,25,11.3z M36.6,36.2L36.6,36.2
	c-0.3,0.4-0.5,0.7-0.7,1l-6.1,8.7L25,53.3l-4.8-7.4l-6.1-8.7l0-0.1c-0.2-0.3-0.4-0.5-0.6-0.8l-0.1-0.1c-1.4-2.2-2.2-4.8-2.2-7.4
	c0-7.6,6.2-13.7,13.7-13.7c7.6,0,13.7,6.2,13.7,13.7C38.7,31.4,38,34,36.6,36.2z"/>
<path class="st3" d="M23.6,23.2c0,0-0.7-0.5-2.1,0c-0.9,0.3-2,1.3-2.5,2.6c-0.4,1-0.4,2.1-0.1,2.8c0.8,1.6,2.4,2.4,3.3,2.4
	c0.9,0,3-0.1,5-1.1c0.8-0.4,1.9-1.6,1.8-2.8c-0.1-0.9-0.9-2.3-1.8-3.2c-0.8-0.8-1.8-1.2-2.3-1.2C24.1,22.6,23.6,23.2,23.6,23.2z"/>
<path class="st3" d="M22.3,28c0,0-0.7-0.5-2.1,0c-0.9,0.3-2,1.3-2.5,2.6c-0.4,1-0.4,2.1-0.1,2.8c0.8,1.6,2.4,2.4,3.3,2.4
	s3-0.1,5-1.1c0.8-0.4,1.9-1.6,1.8-2.8c-0.1-0.9-0.9-2.3-1.8-3.2c-0.8-0.8-1.8-1.2-2.3-1.2C22.8,27.5,22.3,28,22.3,28z"/>
<path class="st3" d="M33.2,23.4c0,0-0.1-0.7-1.1-1.3c-0.7-0.4-1.9-0.5-3-0.2c-0.8,0.3-1.5,0.9-1.8,1.4c-0.6,1.3-0.2,2.8,0.2,3.3
	c0.4,0.5,1.6,1.8,3.4,2.5c0.7,0.3,2,0.3,2.6-0.4c0.5-0.6,0.9-1.8,1-2.8c0.1-0.9-0.2-1.7-0.5-2C33.8,23.4,33.2,23.4,33.2,23.4z"/>
<g class="st4">
	<path class="st2" d="M22.6,32.1c-0.2-0.1-0.4-0.2-0.6-0.3c-0.2-0.1-0.3-0.3-0.5-0.4c-0.1-0.1-0.3-0.3-0.4-0.5
		c-0.1-0.2-0.2-0.3-0.3-0.5c0.1,0.2,0.2,0.3,0.3,0.5c0.1,0.2,0.3,0.3,0.4,0.4c0.1,0.1,0.3,0.3,0.5,0.4c0.2,0.1,0.3,0.2,0.5,0.2
		L22.6,32.1z"/>
	<path class="st2" d="M22.7,33.5c-0.3-0.1-0.6-0.2-0.8-0.4c-0.3-0.1-0.5-0.3-0.8-0.4c-0.5-0.4-0.8-0.9-1.1-1.4
		c0.3,0.5,0.6,1,1.1,1.3c0.2,0.2,0.5,0.3,0.8,0.4c0.3,0.1,0.5,0.2,0.8,0.3L22.7,33.5z"/>
	<path class="st2" d="M22.9,35.2c-0.7-0.3-1.4-0.7-2.1-1c-0.2-0.1-0.4-0.2-0.5-0.3c-0.2-0.1-0.3-0.3-0.4-0.4c-0.3-0.3-0.5-0.6-0.7-1
		c0.2,0.3,0.4,0.7,0.7,0.9c0.1,0.1,0.3,0.3,0.4,0.4c0.2,0.1,0.3,0.2,0.5,0.3c0.7,0.3,1.4,0.6,2.2,0.9L22.9,35.2z"/>
	<path class="st2" d="M22.6,31.9c0.2-0.1,0.3-0.2,0.5-0.3c0.2-0.1,0.3-0.3,0.4-0.4c0.1-0.2,0.3-0.3,0.4-0.5c0.1-0.2,0.2-0.4,0.3-0.6
		c-0.1,0.2-0.1,0.4-0.2,0.6c-0.1,0.2-0.2,0.4-0.3,0.5c-0.1,0.2-0.3,0.3-0.4,0.5c-0.2,0.1-0.3,0.3-0.5,0.4L22.6,31.9z"/>
	<path class="st2" d="M22.7,33.3c0.3-0.1,0.5-0.3,0.7-0.5c0.2-0.2,0.5-0.3,0.7-0.5c0.4-0.4,0.7-0.9,1-1.4c-0.2,0.5-0.5,1.1-0.9,1.5
		c-0.2,0.2-0.5,0.4-0.7,0.6c-0.2,0.2-0.5,0.4-0.8,0.5L22.7,33.3z"/>
	<path class="st2" d="M22.9,35c0.6-0.4,1.3-0.8,1.9-1.2c0.2-0.1,0.3-0.2,0.5-0.3c0.1-0.1,0.3-0.3,0.4-0.4c0.2-0.3,0.4-0.6,0.6-1
		c-0.1,0.4-0.3,0.7-0.5,1c-0.1,0.2-0.2,0.3-0.4,0.5c-0.1,0.1-0.3,0.3-0.4,0.4c-0.6,0.4-1.3,0.9-1.9,1.3L22.9,35z"/>
</g>
<g class="st4">
	<path class="st2" d="M23.9,27.2c-0.2-0.1-0.4-0.2-0.6-0.3c-0.2-0.1-0.3-0.3-0.5-0.4c-0.1-0.1-0.3-0.3-0.4-0.5
		c-0.1-0.2-0.2-0.3-0.3-0.5c0.1,0.2,0.2,0.3,0.3,0.5c0.1,0.2,0.3,0.3,0.4,0.4c0.1,0.1,0.3,0.3,0.5,0.4c0.2,0.1,0.3,0.2,0.5,0.2
		L23.9,27.2z"/>
	<path class="st2" d="M24,28.6c-0.3-0.1-0.6-0.3-0.9-0.4c-0.3-0.1-0.5-0.3-0.8-0.4c-0.5-0.4-0.8-0.9-1.1-1.4c0.3,0.5,0.6,1,1.1,1.3
		c0.2,0.2,0.5,0.3,0.8,0.4c0.3,0.1,0.5,0.2,0.8,0.3L24,28.6z"/>
	<path class="st2" d="M24.2,30.3c-0.7-0.3-1.4-0.7-2.1-1c-0.2-0.1-0.4-0.2-0.5-0.3c-0.2-0.1-0.3-0.3-0.4-0.4c-0.3-0.3-0.5-0.6-0.7-1
		c0.2,0.3,0.4,0.7,0.7,0.9c0.1,0.1,0.3,0.3,0.4,0.4c0.2,0.1,0.3,0.2,0.5,0.3c0.7,0.3,1.4,0.6,2.2,0.9L24.2,30.3z"/>
	<path class="st2" d="M23.9,27.1c0.2-0.1,0.3-0.2,0.5-0.3c0.2-0.1,0.3-0.3,0.4-0.4c0.1-0.2,0.3-0.3,0.4-0.5c0.1-0.2,0.2-0.4,0.3-0.6
		c-0.1,0.2-0.1,0.4-0.2,0.6c-0.1,0.2-0.2,0.4-0.3,0.5c-0.1,0.2-0.3,0.3-0.4,0.5c-0.2,0.1-0.3,0.3-0.5,0.4L23.9,27.1z"/>
	<path class="st2" d="M24,28.4c0.3-0.1,0.5-0.3,0.7-0.5c0.2-0.2,0.5-0.3,0.7-0.5c0.4-0.4,0.7-0.9,1-1.4c-0.2,0.5-0.5,1.1-0.9,1.5
		c-0.2,0.2-0.5,0.4-0.7,0.6c-0.2,0.2-0.5,0.4-0.7,0.5L24,28.4z"/>
	<path class="st2" d="M24.2,30.1c0.6-0.4,1.3-0.8,1.9-1.2c0.2-0.1,0.3-0.2,0.5-0.3c0.1-0.1,0.3-0.3,0.4-0.4c0.2-0.3,0.4-0.6,0.6-1
		c-0.1,0.4-0.3,0.7-0.5,1c-0.1,0.2-0.2,0.3-0.4,0.5c-0.1,0.1-0.3,0.3-0.4,0.4c-0.6,0.4-1.3,0.9-1.9,1.3L24.2,30.1z"/>
</g>
<g class="st4">
	<path class="st2" d="M31,25.6c-0.1-0.2-0.1-0.3-0.1-0.5c0-0.2,0-0.3,0-0.5c0-0.3,0.1-0.7,0.3-1c-0.1,0.3-0.2,0.6-0.2,1
		c0,0.2,0,0.3,0.1,0.5c0,0.2,0.1,0.3,0.1,0.5L31,25.6z"/>
	<path class="st2" d="M30.2,26.4c-0.1-0.2-0.2-0.5-0.2-0.7c-0.1-0.2-0.1-0.5-0.2-0.7c-0.1-0.5,0.1-1,0.3-1.4
		C30,24,29.9,24.5,29.9,25c0,0.2,0.1,0.5,0.2,0.7c0.1,0.2,0.2,0.5,0.3,0.7L30.2,26.4z"/>
	<path class="st2" d="M29.3,27.5c-0.2-0.6-0.4-1.3-0.6-1.9c0-0.2-0.1-0.3-0.1-0.5c0-0.2,0-0.3,0-0.5c0-0.3,0.1-0.7,0.2-1
		c-0.1,0.3-0.2,0.6-0.2,1c0,0.2,0,0.3,0,0.5c0,0.2,0.1,0.3,0.1,0.5c0.2,0.6,0.4,1.2,0.6,1.8L29.3,27.5z"/>
	<path class="st2" d="M31.1,25.5c0.1,0.1,0.3,0.1,0.5,0.1c0.2,0,0.3,0,0.5,0c0.3,0,0.7-0.1,1-0.2c-0.3,0.2-0.6,0.3-1,0.3
		c-0.2,0-0.3,0-0.5,0c-0.2,0-0.4-0.1-0.6-0.1L31.1,25.5z"/>
	<path class="st2" d="M30.4,26.3c0.2,0.1,0.5,0.1,0.7,0.2c0.2,0.1,0.5,0.1,0.7,0.2c0.5,0.1,1-0.1,1.4-0.2c-0.4,0.2-0.9,0.3-1.4,0.3
		c-0.2,0-0.5-0.1-0.7-0.1c-0.2,0-0.5-0.1-0.8-0.2L30.4,26.3z"/>
	<path class="st2" d="M29.4,27.3c0.6,0.2,1.2,0.3,1.8,0.5c0.2,0,0.3,0.1,0.5,0.1c0.2,0,0.3,0,0.5,0c0.3,0,0.6-0.1,0.9-0.2
		c-0.3,0.1-0.6,0.2-0.9,0.2c-0.2,0-0.3,0-0.5,0c-0.2,0-0.3,0-0.5-0.1c-0.6-0.1-1.3-0.3-1.9-0.4L29.4,27.3z"/>
</g>
<path class="st2" d="M25.4,34.2c-0.3-0.7-0.6-1.4-0.9-2.2c-0.2-0.7-0.4-1.5-0.4-2.2c-0.2-1.5-0.3-3-0.3-4.5c0.1,1.5,0.3,3,0.5,4.5
	c0.1,0.7,0.3,1.5,0.5,2.2c0.2,0.7,0.5,1.4,0.9,2.1L25.4,34.2z"/>
<path class="st2" d="M24.4,39.4c-0.1,0-0.1-0.1-0.2-0.1c0,0-0.1-0.1-0.1-0.1c-0.1-0.1-0.1-0.2-0.1-0.3c-0.1-0.2-0.2-0.4-0.2-0.5
	c-0.1-0.4-0.3-0.7-0.4-1.1c-0.2-0.7-0.5-1.5-0.5-2.3c-0.1-0.8-0.2-1.6-0.2-2.3c-0.1-0.8-0.1-1.6-0.1-2.3c0.1,0.8,0.1,1.6,0.2,2.3
	c0.1,0.8,0.2,1.6,0.3,2.3c0.1,0.8,0.3,1.5,0.6,2.3c0.1,0.4,0.3,0.7,0.4,1.1c0.1,0.2,0.1,0.2,0.2,0.3c0.1,0.2,0.3,0.4,0.3,0.4
	c0,0,0.1,0.1,0.1,0.1L24.4,39.4z"/>
<path class="st2" d="M27.4,30.6c0,0,0-0.1,0-0.1l0-0.1c0,0,0-0.1,0-0.1c0-0.1,0-0.1,0.1-0.2c0.1-0.2,0.1-0.3,0.2-0.4
	c0.1-0.3,0.3-0.6,0.4-0.8c0.2-0.3,0.3-0.5,0.5-0.8c0.2-0.3,0.4-0.5,0.6-0.7c0.9-0.9,1.8-1.8,2.7-2.7c-0.9,0.9-1.7,1.8-2.6,2.8
	c-0.2,0.2-0.4,0.5-0.6,0.7c-0.2,0.3-0.3,0.5-0.5,0.8c-0.2,0.3-0.3,0.6-0.4,0.8c-0.1,0.1-0.1,0.3-0.2,0.4c0,0.1-0.1,0.1-0.1,0.2
	c0,0,0,0.1,0,0.1l0,0c0,0,0,0,0,0L27.4,30.6z"/>
<path class="st2" d="M30.3,27.1c-0.3,0.5-0.6,0.9-0.9,1.4c0,0,0,0.1-0.1,0.1c-0.7,0.7-1.4,1.4-2.1,2.1c-0.2,0.2-0.3,0.4-0.4,0.6
	L26.4,32c-0.3,0.4-0.4,0.9-0.7,1.4c-0.1,0.2-0.2,0.4-0.3,0.7c-0.1,0.2-0.2,0.5-0.2,0.7c-0.1,0.5-0.2,1-0.3,1.5
	c-0.2,1-0.6,2.9-0.6,2.9c0.2,1.2,0.3,2.3,0.5,3.5l0.3,0.2c-0.2-1-0.5-3-0.6-3.6c0-0.1,0-0.2,0-0.3c0.2-0.9,0.3-1.8,0.5-2.7
	c0.1-0.5,0.2-0.9,0.3-1.4c0.1-0.2,0.2-0.5,0.2-0.8c0.1-0.2,0.2-0.4,0.3-0.6c0.2-0.4,0.4-0.9,0.6-1.3l0.4-0.7
	c0.1-0.2,0.3-0.4,0.4-0.6c0.6-0.7,1.8-1.8,2-2.1c0,0,0.1-0.1,0.1-0.1c0.1-0.2,0.6-1,0.8-1.5c0.3-0.5,0.6-1.1,0.9-1.5
	C30.9,26.1,30.6,26.6,30.3,27.1z"/>
</svg>
