<svg xmlns="http://www.w3.org/2000/svg" width="45.071" height="41.315" viewBox="0 0 45.071 41.315"><g transform="translate(0 -20.004)"><g transform="translate(0 20.004)"><g transform="translate(0 0)"><path d="M44.32,53.807h-.835a5.243,5.243,0,0,0-.977-8.263,5.254,5.254,0,0,0-2.7-9.765H33.052V30.52a.751.751,0,0,0-.865-.742l-8.9,1.369v-.7a3.763,3.763,0,0,0,3-3.681c0-3.278-3.093-6.409-3.225-6.541a.751.751,0,0,0-1.062,0c-.132.131-3.225,3.262-3.225,6.541a3.763,3.763,0,0,0,3,3.681v.934l-9.128,1.4a.751.751,0,0,0-.637.741v8.369a8.219,8.219,0,0,0-1.878-1.507.751.751,0,0,0-.751,0,8.3,8.3,0,0,0-4.056,6.074A8.153,8.153,0,0,0,3.756,46.3a8.2,8.2,0,0,0-.992.065.751.751,0,0,0-.6.451,8.256,8.256,0,0,0,2.86,10H0v1.5H1.789L3.084,60.9a.751.751,0,0,0,.672.415H32.3a.751.751,0,0,0,.751-.751V58.314h4.794L39.14,60.9a.751.751,0,0,0,.672.415h3a.751.751,0,0,0,.751-.751V58.314h.751a.751.751,0,0,0,.751-.751v-3A.751.751,0,0,0,44.32,53.807Zm-.751-3.756a3.76,3.76,0,0,1-3.756,3.756H26.291a3.756,3.756,0,1,1,0-7.512h9.765a2.254,2.254,0,0,1,0,4.507H28.545a.751.751,0,0,1,0-1.5H33.8V47.8H28.545a2.254,2.254,0,0,0,0,4.507h7.512a3.76,3.76,0,0,0,3.756-3.756,3.717,3.717,0,0,0-.771-2.254h.771A3.76,3.76,0,0,1,43.569,50.051Zm-6.009-12.77a2.254,2.254,0,0,1,0,4.507H30.047a.751.751,0,0,1,0-1.5h5.258v-1.5H30.047a2.254,2.254,0,1,0,0,4.507h7.512a3.76,3.76,0,0,0,3.756-3.756,3.72,3.72,0,0,0-.694-2.16,3.756,3.756,0,0,1-.808,7.419H29.3a3.756,3.756,0,1,1,0-7.512h8.263ZM20.282,26.764c0-1.921,1.446-3.918,2.254-4.883.808.964,2.254,2.957,2.254,4.883a2.254,2.254,0,0,1-1.5,2.115V27.515h-1.5V28.88A2.254,2.254,0,0,1,20.282,26.764ZM9.765,41.922a6.784,6.784,0,0,1,2.963,4.962A8.282,8.282,0,0,0,9.772,48.9a8.314,8.314,0,0,0-2.971-2A6.782,6.782,0,0,1,9.765,41.922Zm3.768,6.258a6.763,6.763,0,0,1,2.241-.382c.118,0,.241,0,.37.013a6.761,6.761,0,0,1-6.379,9c-.118,0-.241,0-.37-.013A6.761,6.761,0,0,1,13.534,48.18ZM3,50.051a6.72,6.72,0,0,1,.382-2.241c.128-.008.252-.013.37-.013a6.691,6.691,0,0,1,5.072,2.3,8.135,8.135,0,0,0-1.074,6.405A6.761,6.761,0,0,1,3,50.051Zm12.306,9.765H4.22l-.751-1.5H16.062Zm7.225,0H16.99l.751-1.5h1.789v-1.5H14.5a8.251,8.251,0,0,0,2.866-10,.751.751,0,0,0-.6-.451,7.916,7.916,0,0,0-2.567.09,8.227,8.227,0,0,0-.726-2.409h.048V34.169L31.55,31.4v4.382H29.3a5.252,5.252,0,0,0-3.628,9.055,5.25,5.25,0,0,0-3.049,8.974h-.835a.751.751,0,0,0-.751.751v3a.751.751,0,0,0,.751.751h.751Zm3.292,0H24.038v-1.5h2.541Zm5.723,0H27.507l.751-1.5H31.55Zm10.517,0H40.277l-.751-1.5h2.541Zm1.5-3H22.536v-1.5H43.569Z" transform="translate(0 -20.004)" fill="#a4a4a4"/></g></g><g transform="translate(15.024 35.778)"><rect width="1.502" height="6.009" fill="#a4a4a4"/></g><g transform="translate(15.024 43.29)"><rect width="1.502" height="1.502" fill="#a4a4a4"/></g></g></svg>